<mxfile host="app.diagrams.net" modified="2023-05-10T05:41:42.462Z" agent="Mozilla/5.0 (Macintosh; Intel Mac OS X 10_15_7) AppleWebKit/537.36 (KHTML, like Gecko) Chrome/112.0.0.0 Safari/537.36" etag="4bU75IV_v10rbALNm47e" version="21.2.8" type="device">
  <diagram name="Page-1" id="R_XCjFb9JAZY4Fq_fYYm">
    <mxGraphModel dx="1070" dy="1054" grid="1" gridSize="10" guides="1" tooltips="1" connect="1" arrows="1" fold="1" page="1" pageScale="1" pageWidth="850" pageHeight="1100" math="0" shadow="0">
      <root>
        <mxCell id="0" />
        <mxCell id="1" parent="0" />
        <mxCell id="sZYuZmH9N4lZj9YgoYgc-1" value="Controllers:" style="whiteSpace=wrap;html=1;" vertex="1" parent="1">
          <mxGeometry x="20" y="50" width="120" height="60" as="geometry" />
        </mxCell>
        <mxCell id="sZYuZmH9N4lZj9YgoYgc-2" value="PolicyController.java&lt;br&gt;&lt;br&gt;REST Controller handling the following endpoints:&lt;br&gt;&lt;br&gt;POST create(policy)&lt;br&gt;&lt;br&gt;POST update(policy)&lt;br&gt;&lt;br&gt;GET get(policyId)&lt;br&gt;&lt;br&gt;GET getAll()" style="whiteSpace=wrap;html=1;" vertex="1" parent="1">
          <mxGeometry x="170" y="50" width="220" height="210" as="geometry" />
        </mxCell>
        <mxCell id="sZYuZmH9N4lZj9YgoYgc-3" value="UserController.java&lt;br&gt;&lt;br&gt;REST Controller handling the following endpoints:&lt;br&gt;&lt;br&gt;POST create(user)&lt;br&gt;&lt;br&gt;POST update(user)&lt;br&gt;&lt;br&gt;GET get(userId)&lt;br&gt;&lt;br&gt;GET getAll()&lt;br&gt;&lt;br&gt;POST delete(userId)" style="whiteSpace=wrap;html=1;" vertex="1" parent="1">
          <mxGeometry x="430" y="50" width="220" height="210" as="geometry" />
        </mxCell>
        <mxCell id="sZYuZmH9N4lZj9YgoYgc-4" value="Services:" style="whiteSpace=wrap;html=1;" vertex="1" parent="1">
          <mxGeometry x="20" y="300" width="120" height="60" as="geometry" />
        </mxCell>
        <mxCell id="sZYuZmH9N4lZj9YgoYgc-5" value="UserService.java&lt;br&gt;&lt;br&gt;findById(userId)&lt;br&gt;&lt;br&gt;findAll()&lt;br&gt;&lt;br&gt;saveUser(User)&lt;br&gt;&lt;br&gt;delete(userId)&lt;br&gt;&lt;br&gt;addPolicyToUsers(userIds, policyId)&lt;br&gt;&lt;br&gt;removePolicyFromAllUsers(policyId)&lt;br&gt;&lt;br&gt;removePolicyFromUsers(userIds, policyId)&lt;br&gt;&lt;br&gt;updateUser(userId, User)" style="whiteSpace=wrap;html=1;" vertex="1" parent="1">
          <mxGeometry x="450" y="300" width="260" height="310" as="geometry" />
        </mxCell>
        <mxCell id="sZYuZmH9N4lZj9YgoYgc-6" value="PolicyService.java&lt;br&gt;&lt;br&gt;findById(policyId)&lt;br&gt;&lt;br&gt;findAll()&lt;br&gt;&lt;br&gt;savePolicy(Policy)&lt;br&gt;&lt;br&gt;delete(policyId)&lt;br&gt;&lt;br&gt;addUserToPolicies(policyIds, userId)&lt;br&gt;&lt;br&gt;removeUserFromAllPolicies(userId)&lt;br&gt;&lt;br&gt;removeUserFromPolicies(policyIds, userId)&lt;br&gt;&lt;br&gt;updatePolicy(policyId, Policy)" style="whiteSpace=wrap;html=1;" vertex="1" parent="1">
          <mxGeometry x="170" y="300" width="260" height="310" as="geometry" />
        </mxCell>
        <mxCell id="sZYuZmH9N4lZj9YgoYgc-7" value="Repositories:" style="whiteSpace=wrap;html=1;" vertex="1" parent="1">
          <mxGeometry x="30" y="640" width="120" height="60" as="geometry" />
        </mxCell>
        <mxCell id="sZYuZmH9N4lZj9YgoYgc-8" value="PolicyRepository.java&lt;br&gt;&lt;br&gt;&lt;div style=&quot;color: rgb(166, 172, 205); background-color: rgb(41, 45, 62); font-family: &amp;quot;Operator Mono Lig Light&amp;quot;, Menlo, Monaco, &amp;quot;Courier New&amp;quot;, monospace; line-height: 18px;&quot;&gt;&lt;div&gt;    Optional&lt;span style=&quot;color: #89ddff;&quot;&gt;&amp;lt;&lt;/span&gt;&lt;span style=&quot;color: #ffcb6b;&quot;&gt;Policy&lt;/span&gt;&lt;span style=&quot;color: #89ddff;&quot;&gt;&amp;gt;&lt;/span&gt; &lt;span style=&quot;color: #82aaff;&quot;&gt;findById&lt;/span&gt;&lt;span style=&quot;color: #89ddff;&quot;&gt;(&lt;/span&gt;&lt;span style=&quot;color: #ffcb6b;&quot;&gt;String&lt;/span&gt; &lt;span style=&quot;font-style: italic;&quot;&gt;id&lt;/span&gt;&lt;span style=&quot;color: #89ddff;&quot;&gt;);&lt;/span&gt;&lt;/div&gt;&lt;br&gt;&lt;div&gt;    &lt;span style=&quot;color: #ffcb6b;&quot;&gt;List&lt;/span&gt;&lt;span style=&quot;color: #89ddff;&quot;&gt;&amp;lt;&lt;/span&gt;&lt;span style=&quot;color: #ffcb6b;&quot;&gt;Policy&lt;/span&gt;&lt;span style=&quot;color: #89ddff;&quot;&gt;&amp;gt;&lt;/span&gt; &lt;span style=&quot;color: #82aaff;&quot;&gt;findAll&lt;/span&gt;&lt;span style=&quot;color: #89ddff;&quot;&gt;();&lt;/span&gt;&lt;/div&gt;&lt;br&gt;&lt;div&gt;    &lt;span style=&quot;color: #c792ea;&quot;&gt;void&lt;/span&gt; &lt;span style=&quot;color: #82aaff;&quot;&gt;deleteById&lt;/span&gt;&lt;span style=&quot;color: #89ddff;&quot;&gt;(&lt;/span&gt;&lt;span style=&quot;color: #ffcb6b;&quot;&gt;String&lt;/span&gt; &lt;span style=&quot;font-style: italic;&quot;&gt;id&lt;/span&gt;&lt;span style=&quot;color: #89ddff;&quot;&gt;);&lt;/span&gt;&lt;/div&gt;&lt;br&gt;&lt;div&gt;    &lt;span style=&quot;color: #ffcb6b;&quot;&gt;Policy&lt;/span&gt; &lt;span style=&quot;color: #82aaff;&quot;&gt;save&lt;/span&gt;&lt;span style=&quot;color: #89ddff;&quot;&gt;(&lt;/span&gt;&lt;span style=&quot;color: #ffcb6b;&quot;&gt;Policy&lt;/span&gt; &lt;span style=&quot;font-style: italic;&quot;&gt;user&lt;/span&gt;&lt;span style=&quot;color: #89ddff;&quot;&gt;);&lt;/span&gt;&lt;/div&gt;&lt;/div&gt;" style="whiteSpace=wrap;html=1;" vertex="1" parent="1">
          <mxGeometry x="170" y="640" width="310" height="180" as="geometry" />
        </mxCell>
        <mxCell id="sZYuZmH9N4lZj9YgoYgc-9" value="UserRepository.java&lt;br&gt;&lt;br&gt;&lt;div style=&quot;color: rgb(166, 172, 205); background-color: rgb(41, 45, 62); font-family: &amp;quot;Operator Mono Lig Light&amp;quot;, Menlo, Monaco, &amp;quot;Courier New&amp;quot;, monospace; line-height: 18px;&quot;&gt;&lt;div&gt;Optional&lt;span style=&quot;color: #89ddff;&quot;&gt;&amp;lt;&lt;/span&gt;&lt;span style=&quot;color: #ffcb6b;&quot;&gt;User&lt;/span&gt;&lt;span style=&quot;color: #89ddff;&quot;&gt;&amp;gt;&lt;/span&gt; &lt;span style=&quot;color: #82aaff;&quot;&gt;findById&lt;/span&gt;&lt;span style=&quot;color: #89ddff;&quot;&gt;(&lt;/span&gt;&lt;span style=&quot;color: #ffcb6b;&quot;&gt;String&lt;/span&gt; &lt;span style=&quot;font-style: italic;&quot;&gt;id&lt;/span&gt;&lt;span style=&quot;color: #89ddff;&quot;&gt;);&lt;/span&gt;&lt;/div&gt;&lt;br&gt;&lt;div&gt;    &lt;span style=&quot;color: #ffcb6b;&quot;&gt;List&lt;/span&gt;&lt;span style=&quot;color: #89ddff;&quot;&gt;&amp;lt;&lt;/span&gt;&lt;span style=&quot;color: #ffcb6b;&quot;&gt;User&lt;/span&gt;&lt;span style=&quot;color: #89ddff;&quot;&gt;&amp;gt;&lt;/span&gt; &lt;span style=&quot;color: #82aaff;&quot;&gt;findAll&lt;/span&gt;&lt;span style=&quot;color: #89ddff;&quot;&gt;();&lt;/span&gt;&lt;/div&gt;&lt;br&gt;&lt;div&gt;    &lt;span style=&quot;color: #c792ea;&quot;&gt;void&lt;/span&gt; &lt;span style=&quot;color: #82aaff;&quot;&gt;deleteById&lt;/span&gt;&lt;span style=&quot;color: #89ddff;&quot;&gt;(&lt;/span&gt;&lt;span style=&quot;color: #ffcb6b;&quot;&gt;String&lt;/span&gt; &lt;span style=&quot;font-style: italic;&quot;&gt;id&lt;/span&gt;&lt;span style=&quot;color: #89ddff;&quot;&gt;,&lt;/span&gt; &lt;span style=&quot;color: #c792ea;&quot;&gt;PartitionKey&lt;/span&gt; &lt;span style=&quot;font-style: italic;&quot;&gt;partitionKey&lt;/span&gt;&lt;span style=&quot;color: #89ddff;&quot;&gt;);&lt;/span&gt;&lt;/div&gt;&lt;div&gt;    &lt;/div&gt;&lt;div&gt;    &lt;span style=&quot;color: #ffcb6b;&quot;&gt;User&lt;/span&gt; &lt;span style=&quot;color: #82aaff;&quot;&gt;save&lt;/span&gt;&lt;span style=&quot;color: #89ddff;&quot;&gt;(&lt;/span&gt;&lt;span style=&quot;color: #ffcb6b;&quot;&gt;User&lt;/span&gt; &lt;span style=&quot;font-style: italic;&quot;&gt;user&lt;/span&gt;&lt;span style=&quot;color: #89ddff;&quot;&gt;);&lt;/span&gt;&lt;/div&gt;&lt;/div&gt;" style="whiteSpace=wrap;html=1;" vertex="1" parent="1">
          <mxGeometry x="510" y="640" width="270" height="190" as="geometry" />
        </mxCell>
        <mxCell id="sZYuZmH9N4lZj9YgoYgc-10" value="Entities:" style="whiteSpace=wrap;html=1;" vertex="1" parent="1">
          <mxGeometry x="20" y="830" width="120" height="60" as="geometry" />
        </mxCell>
        <mxCell id="sZYuZmH9N4lZj9YgoYgc-11" value="Policy.java&lt;br&gt;&lt;br&gt;&lt;div style=&quot;color: rgb(166, 172, 205); background-color: rgb(41, 45, 62); font-family: &amp;quot;Operator Mono Lig Light&amp;quot;, Menlo, Monaco, &amp;quot;Courier New&amp;quot;, monospace; line-height: 18px;&quot;&gt;&lt;div&gt;public &lt;span style=&quot;color: #c792ea;&quot;&gt;class&lt;/span&gt; &lt;span style=&quot;color: #ffcb6b;&quot;&gt;Policy&lt;/span&gt; &lt;span style=&quot;color: #89ddff;&quot;&gt;{&lt;/span&gt;&lt;/div&gt;&lt;br&gt;&lt;div&gt;    &lt;span style=&quot;color: #89ddff;&quot;&gt;@&lt;/span&gt;&lt;span style=&quot;color: #c792ea;&quot;&gt;PartitionKey&lt;/span&gt;&lt;/div&gt;&lt;div&gt;    &lt;span style=&quot;color: #c792ea;font-style: italic;&quot;&gt;private&lt;/span&gt; &lt;span style=&quot;color: #ffcb6b;&quot;&gt;String&lt;/span&gt; id&lt;span style=&quot;color: #89ddff;&quot;&gt;;&lt;/span&gt;&lt;/div&gt;&lt;div&gt;  &lt;/div&gt;&lt;div&gt;    &lt;span style=&quot;color: #c792ea;font-style: italic;&quot;&gt;private&lt;/span&gt; &lt;span style=&quot;color: #ffcb6b;&quot;&gt;String&lt;/span&gt; monthly_premium&lt;span style=&quot;color: #89ddff;&quot;&gt;;&lt;/span&gt;&lt;/div&gt;&lt;div&gt;  &lt;/div&gt;&lt;div&gt;    &lt;span style=&quot;color: #c792ea;font-style: italic;&quot;&gt;private&lt;/span&gt; &lt;span style=&quot;color: #ffcb6b;&quot;&gt;String&lt;/span&gt; deductible&lt;span style=&quot;color: #89ddff;&quot;&gt;;&lt;/span&gt;&lt;/div&gt;&lt;br&gt;&lt;div&gt;    &lt;span style=&quot;color: #c792ea;font-style: italic;&quot;&gt;private&lt;/span&gt; &lt;span style=&quot;color: #ffcb6b;&quot;&gt;ArrayList&lt;/span&gt;&lt;span style=&quot;color: #89ddff;&quot;&gt;&amp;lt;&lt;/span&gt;&lt;span style=&quot;color: #ffcb6b;&quot;&gt;String&lt;/span&gt;&lt;span style=&quot;color: #89ddff;&quot;&gt;&amp;gt;&lt;/span&gt; addresses&lt;span style=&quot;color: #89ddff;&quot;&gt;;&lt;/span&gt;&lt;/div&gt;&lt;br&gt;&lt;div&gt;    &lt;span style=&quot;color: #c792ea;font-style: italic;&quot;&gt;private&lt;/span&gt; &lt;span style=&quot;color: #ffcb6b;&quot;&gt;ArrayList&lt;/span&gt;&lt;span style=&quot;color: #89ddff;&quot;&gt;&amp;lt;&lt;/span&gt;&lt;span style=&quot;color: #ffcb6b;&quot;&gt;String&lt;/span&gt;&lt;span style=&quot;color: #89ddff;&quot;&gt;&amp;gt;&lt;/span&gt; users&lt;span style=&quot;color: #89ddff;&quot;&gt;;&lt;/span&gt;&lt;/div&gt;&lt;div&gt;&lt;span style=&quot;color: #89ddff;&quot;&gt;}&lt;/span&gt;&lt;/div&gt;&lt;/div&gt;" style="whiteSpace=wrap;html=1;" vertex="1" parent="1">
          <mxGeometry x="160" y="840" width="310" height="250" as="geometry" />
        </mxCell>
        <mxCell id="sZYuZmH9N4lZj9YgoYgc-12" value="User.java&lt;br&gt;&lt;div style=&quot;color: rgb(166, 172, 205); background-color: rgb(41, 45, 62); font-family: &amp;quot;Operator Mono Lig Light&amp;quot;, Menlo, Monaco, &amp;quot;Courier New&amp;quot;, monospace; line-height: 18px;&quot;&gt;&lt;div&gt;public &lt;span style=&quot;color: #c792ea;&quot;&gt;class&lt;/span&gt; &lt;span style=&quot;color: #ffcb6b;&quot;&gt;User&lt;/span&gt; &lt;span style=&quot;color: #89ddff;&quot;&gt;{&lt;/span&gt;&lt;/div&gt;&lt;br&gt;&lt;div&gt;    &lt;span style=&quot;color: #89ddff;&quot;&gt;@&lt;/span&gt;&lt;span style=&quot;color: #c792ea;&quot;&gt;PartitionKey&lt;/span&gt;&lt;/div&gt;&lt;div&gt;    &lt;span style=&quot;color: #c792ea;font-style: italic;&quot;&gt;private&lt;/span&gt; &lt;span style=&quot;color: #ffcb6b;&quot;&gt;String&lt;/span&gt; id&lt;span style=&quot;color: #89ddff;&quot;&gt;;&lt;/span&gt;&lt;/div&gt;&lt;div&gt;  &lt;/div&gt;&lt;div&gt;    &lt;span style=&quot;color: #c792ea;font-style: italic;&quot;&gt;private&lt;/span&gt; &lt;span style=&quot;color: #ffcb6b;&quot;&gt;String&lt;/span&gt; name&lt;span style=&quot;color: #89ddff;&quot;&gt;;&lt;/span&gt;&lt;/div&gt;&lt;div&gt;  &lt;/div&gt;&lt;div&gt;    &lt;span style=&quot;color: #c792ea;font-style: italic;&quot;&gt;private&lt;/span&gt; &lt;span style=&quot;color: #ffcb6b;&quot;&gt;String&lt;/span&gt; email&lt;span style=&quot;color: #89ddff;&quot;&gt;;&lt;/span&gt;&lt;/div&gt;&lt;div&gt;    &lt;span style=&quot;color: #c792ea;font-style: italic;&quot;&gt;private&lt;/span&gt; &lt;span style=&quot;color: #ffcb6b;&quot;&gt;String&lt;/span&gt; phone&lt;span style=&quot;color: #89ddff;&quot;&gt;;&lt;/span&gt;&lt;/div&gt;&lt;div&gt;    &lt;span style=&quot;color: #c792ea;font-style: italic;&quot;&gt;private&lt;/span&gt; &lt;span style=&quot;color: #ffcb6b;&quot;&gt;ArrayList&lt;/span&gt;&lt;span style=&quot;color: #89ddff;&quot;&gt;&amp;lt;&lt;/span&gt;&lt;span style=&quot;color: #ffcb6b;&quot;&gt;String&lt;/span&gt;&lt;span style=&quot;color: #89ddff;&quot;&gt;&amp;gt;&lt;/span&gt; policies&lt;span style=&quot;color: #89ddff;&quot;&gt;;&lt;/span&gt;&lt;/div&gt;&lt;div&gt;    &lt;span style=&quot;color: #c792ea;font-style: italic;&quot;&gt;private&lt;/span&gt; &lt;span style=&quot;color: #ffcb6b;&quot;&gt;ArrayList&lt;/span&gt;&lt;span style=&quot;color: #89ddff;&quot;&gt;&amp;lt;&lt;/span&gt;&lt;span style=&quot;color: #ffcb6b;&quot;&gt;String&lt;/span&gt;&lt;span style=&quot;color: #89ddff;&quot;&gt;&amp;gt;&lt;/span&gt; addresses&lt;span style=&quot;color: #89ddff;&quot;&gt;;&lt;/span&gt;&lt;/div&gt;&lt;br&gt;&lt;div&gt;&lt;span style=&quot;color: #89ddff;&quot;&gt;}&lt;/span&gt;&lt;/div&gt;&lt;br&gt;&lt;/div&gt;" style="whiteSpace=wrap;html=1;" vertex="1" parent="1">
          <mxGeometry x="480" y="840" width="350" height="270" as="geometry" />
        </mxCell>
      </root>
    </mxGraphModel>
  </diagram>
</mxfile>
